HIERARCHY
ROOT Hips
{
	OFFSET -0.148888 88.448799 3.733362
	CHANNELS 6 Xposition Yposition Zposition Zrotation Yrotation Xrotation 
	JOINT Spine
	{
		OFFSET 0.000000 8.814246 -2.080107
		CHANNELS 3 Zrotation Yrotation Xrotation
		JOINT Spine1
		{
			OFFSET 0.000000 8.844141 0.000000
			CHANNELS 3 Zrotation Yrotation Xrotation
			JOINT Spine2
			{
				OFFSET -0.000000 11.682268 -0.000000
				CHANNELS 3 Zrotation Yrotation Xrotation
				JOINT Spine3
				{
					OFFSET -0.000000 11.746700 -0.000000
					CHANNELS 3 Zrotation Yrotation Xrotation
					JOINT Neck
					{
						OFFSET 0.000000 17.658264 -0.000000
						CHANNELS 3 Zrotation Yrotation Xrotation
						JOINT Neck1
						{
							OFFSET 0.000000 5.101515 0.000000
							CHANNELS 3 Zrotation Yrotation Xrotation
							JOINT Head
							{
								OFFSET -0.000000 5.101515 -0.000000
								CHANNELS 3 Zrotation Yrotation Xrotation
								JOINT HeadEnd
								{
									OFFSET 0.000000 11.655085 -0.000000
									CHANNELS 3 Zrotation Yrotation Xrotation
									End Site
									{
										OFFSET 0.000000 0.000000 0.000000
									}
								}
							}
						}
					}
					JOINT RightShoulder
					{
						OFFSET -2.625389 11.175210 -0.000000
						CHANNELS 3 Zrotation Yrotation Xrotation
						JOINT RightArm
						{
							OFFSET -0.000000 10.434715 0.000000
							CHANNELS 3 Zrotation Yrotation Xrotation
							JOINT RightForeArm
							{
								OFFSET 0.000000 29.628420 0.000000
								CHANNELS 3 Zrotation Yrotation Xrotation
								JOINT RightHand
								{
									OFFSET 0.000000 22.857611 0.000000
									CHANNELS 3 Zrotation Yrotation Xrotation
									JOINT RightHandThumb1
									{
										OFFSET -2.867323 3.959563 2.944291
										CHANNELS 3 Zrotation Yrotation Xrotation
										JOINT RightHandThumb2
										{
											OFFSET -0.000000 3.350399 0.000000
											CHANNELS 3 Zrotation Yrotation Xrotation
											JOINT RightHandThumb3
											{
												OFFSET -0.000000 3.756509 0.000000
												CHANNELS 3 Zrotation Yrotation Xrotation
												JOINT RightHandThumb4
												{
													OFFSET 0.000000 3.147345 0.000000
													CHANNELS 3 Zrotation Yrotation Xrotation
													End Site
													{
														OFFSET 0.000000 0.000000 0.000000
													}
												}
											}
										}
									}
									JOINT RightHandIndex1
									{
										OFFSET -0.086752 10.030893 2.345280
										CHANNELS 3 Zrotation Yrotation Xrotation
										JOINT RightHandIndex2
										{
											OFFSET 0.000000 4.061090 -0.000000
											CHANNELS 3 Zrotation Yrotation Xrotation
											JOINT RightHandIndex3
											{
												OFFSET -0.000000 3.248873 0.000000
												CHANNELS 3 Zrotation Yrotation Xrotation
												JOINT RightHandIndex4
												{
													OFFSET 0.000000 2.639709 -0.000000
													CHANNELS 3 Zrotation Yrotation Xrotation
													End Site
													{
														OFFSET 0.000000 0.000000 0.000000
													}
												}
											}
										}
									}
									JOINT RightHandMiddle1
									{
										OFFSET 0.104102 9.502952 0.006768
										CHANNELS 3 Zrotation Yrotation Xrotation
										JOINT RightHandMiddle2
										{
											OFFSET 0.000000 4.568727 0.000000
											CHANNELS 3 Zrotation Yrotation Xrotation
											JOINT RightHandMiddle3
											{
												OFFSET 0.000000 3.654981 -0.000000
												CHANNELS 3 Zrotation Yrotation Xrotation
												JOINT RightHandMiddle4
												{
													OFFSET -0.000000 2.741236 0.000000
													CHANNELS 3 Zrotation Yrotation Xrotation
													End Site
													{
														OFFSET 0.000000 0.000000 0.000000
													}
												}
											}
										}
									}
									JOINT RightHandRing1
									{
										OFFSET 0.086752 8.921708 -2.267442
										CHANNELS 3 Zrotation Yrotation Xrotation
										JOINT RightHandRing2
										{
											OFFSET -0.000000 4.061090 0.000000
											CHANNELS 3 Zrotation Yrotation Xrotation
											JOINT RightHandRing3
											{
												OFFSET -0.000000 3.654981 0.000000
												CHANNELS 3 Zrotation Yrotation Xrotation
												JOINT RightHandRing4
												{
													OFFSET -0.000000 2.741236 0.000000
													CHANNELS 3 Zrotation Yrotation Xrotation
													End Site
													{
														OFFSET 0.000000 0.000000 0.000000
													}
												}
											}
										}
									}
									JOINT RightHandPinky1
									{
										OFFSET -0.173504 7.976997 -4.467199
										CHANNELS 3 Zrotation Yrotation Xrotation
										JOINT RightHandPinky2
										{
											OFFSET -0.000000 3.350399 0.000000
											CHANNELS 3 Zrotation Yrotation Xrotation
											JOINT RightHandPinky3
											{
												OFFSET -0.000000 2.842763 0.000000
												CHANNELS 3 Zrotation Yrotation Xrotation
												JOINT RightHandPinky4
												{
													OFFSET 0.000000 2.639709 -0.000000
													CHANNELS 3 Zrotation Yrotation Xrotation
													End Site
													{
														OFFSET 0.000000 0.000000 0.000000
													}
												}
											}
										}
									}
									JOINT RightForeArmEnd
									{
										OFFSET 0.000000 0.000000 0.000000
										CHANNELS 3 Zrotation Yrotation Xrotation
										End Site
										{
											OFFSET 0.000000 0.000000 0.000000
										}
									}
								}
								JOINT RightArmEnd
								{
									OFFSET 0.000000 0.000000 0.000000
									CHANNELS 3 Zrotation Yrotation Xrotation
									End Site
									{
										OFFSET 0.000000 0.000000 0.000000
									}
								}
							}
						}
					}
					JOINT LeftShoulder
					{
						OFFSET 2.625389 11.175210 0.000000
						CHANNELS 3 Zrotation Yrotation Xrotation
						JOINT LeftArm
						{
							OFFSET -0.000000 10.813635 -0.000000
							CHANNELS 3 Zrotation Yrotation Xrotation
							JOINT LeftForeArm
							{
								OFFSET 0.000000 28.724781 0.000000
								CHANNELS 3 Zrotation Yrotation Xrotation
								JOINT LeftHand
								{
									OFFSET 0.644384 25.716167 -0.328871
									CHANNELS 3 Zrotation Yrotation Xrotation
									JOINT LeftHandThumb1
									{
										OFFSET 2.867323 3.959563 2.944291
										CHANNELS 3 Zrotation Yrotation Xrotation
										JOINT LeftHandThumb2
										{
											OFFSET 0.000000 3.350399 -0.000000
											CHANNELS 3 Zrotation Yrotation Xrotation
											JOINT LeftHandThumb3
											{
												OFFSET 0.000000 3.756509 0.000000
												CHANNELS 3 Zrotation Yrotation Xrotation
												JOINT LeftHandThumb4
												{
													OFFSET -0.000000 3.100000 0.000000
													CHANNELS 3 Zrotation Yrotation Xrotation
													End Site
													{
														OFFSET 0.000000 0.000000 0.000000
													}
												}
											}
										}
									}
									JOINT LeftHandIndex1
									{
										OFFSET 0.086752 10.030893 2.345280
										CHANNELS 3 Zrotation Yrotation Xrotation
										JOINT LeftHandIndex2
										{
											OFFSET -0.000000 4.061090 0.000000
											CHANNELS 3 Zrotation Yrotation Xrotation
											JOINT LeftHandIndex3
											{
												OFFSET 0.000000 3.248873 0.000000
												CHANNELS 3 Zrotation Yrotation Xrotation
												JOINT LeftHandIndex4
												{
													OFFSET -0.000000 2.639709 -0.000000
													CHANNELS 3 Zrotation Yrotation Xrotation
													End Site
													{
														OFFSET 0.000000 0.000000 0.000000
													}
												}
											}
										}
									}
									JOINT LeftHandMiddle1
									{
										OFFSET -0.104102 9.502952 0.006768
										CHANNELS 3 Zrotation Yrotation Xrotation
										JOINT LeftHandMiddle2
										{
											OFFSET -0.000000 4.568727 -0.000000
											CHANNELS 3 Zrotation Yrotation Xrotation
											JOINT LeftHandMiddle3
											{
												OFFSET 0.000000 3.654981 0.000000
												CHANNELS 3 Zrotation Yrotation Xrotation
												JOINT LeftHandMiddle4
												{
													OFFSET 0.000000 2.741236 0.000000
													CHANNELS 3 Zrotation Yrotation Xrotation
													End Site
													{
														OFFSET 0.000000 0.000000 0.000000
													}
												}
											}
										}
									}
									JOINT LeftHandRing1
									{
										OFFSET -0.086752 8.921708 -2.267442
										CHANNELS 3 Zrotation Yrotation Xrotation
										JOINT LeftHandRing2
										{
											OFFSET 0.000000 4.061090 0.000000
											CHANNELS 3 Zrotation Yrotation Xrotation
											JOINT LeftHandRing3
											{
												OFFSET 0.000000 3.654981 0.000000
												CHANNELS 3 Zrotation Yrotation Xrotation
												JOINT LeftHandRing4
												{
													OFFSET -0.000000 2.741236 0.000000
													CHANNELS 3 Zrotation Yrotation Xrotation
													End Site
													{
														OFFSET 0.000000 0.000000 0.000000
													}
												}
											}
										}
									}
									JOINT LeftHandPinky1
									{
										OFFSET 0.173504 7.976997 -4.467199
										CHANNELS 3 Zrotation Yrotation Xrotation
										JOINT LeftHandPinky2
										{
											OFFSET -0.000000 3.350399 -0.000000
											CHANNELS 3 Zrotation Yrotation Xrotation
											JOINT LeftHandPinky3
											{
												OFFSET -0.000000 2.842763 0.000000
												CHANNELS 3 Zrotation Yrotation Xrotation
												JOINT LeftHandPinky4
												{
													OFFSET 0.000000 2.639709 0.000000
													CHANNELS 3 Zrotation Yrotation Xrotation
													End Site
													{
														OFFSET 0.000000 0.000000 0.000000
													}
												}
											}
										}
									}
									JOINT LeftForeArmEnd
									{
										OFFSET 0.000000 0.000000 0.000000
										CHANNELS 3 Zrotation Yrotation Xrotation
										End Site
										{
											OFFSET 0.000000 0.000000 0.000000
										}
									}
								}
								JOINT LeftArmEnd
								{
									OFFSET 0.000000 0.000000 0.000000
									CHANNELS 3 Zrotation Yrotation Xrotation
									End Site
									{
										OFFSET 0.000000 0.000000 0.000000
									}
								}
							}
						}
					}
				}
			}
		}
	}
	JOINT RightUpLeg
	{
		OFFSET -11.289943 -0.000000 -0.000000
		CHANNELS 3 Zrotation Yrotation Xrotation
		JOINT RightLeg
		{
			OFFSET 0.000000 -38.200325 0.000000
			CHANNELS 3 Zrotation Yrotation Xrotation
			JOINT RightFoot
			{
				OFFSET 0.000000 -39.900856 -0.000000
				CHANNELS 3 Zrotation Yrotation Xrotation
				JOINT RightToeBase
				{
					OFFSET 0.000000 0.000000 15.261641
					CHANNELS 3 Zrotation Yrotation Xrotation
					JOINT RightToeBaseEnd
					{
						OFFSET -0.000000 -0.000000 7.370709
						CHANNELS 3 Zrotation Yrotation Xrotation
						End Site
						{
							OFFSET 0.000000 0.000000 0.000000
						}
					}
				}
				JOINT RightLegEnd
				{
					OFFSET 0.000000 0.000000 0.000000
					CHANNELS 3 Zrotation Yrotation Xrotation
					End Site
					{
						OFFSET 0.000000 0.000000 0.000000
					}
				}
			}
			JOINT RightUpLegEnd
			{
				OFFSET 0.000000 0.000000 0.000000
				CHANNELS 3 Zrotation Yrotation Xrotation
				End Site
				{
					OFFSET 0.000000 0.000000 0.000000
				}
			}
		}
	}
	JOINT LeftUpLeg
	{
		OFFSET 11.315661 -0.000000 0.000000
		CHANNELS 3 Zrotation Yrotation Xrotation
		JOINT LeftLeg
		{
			OFFSET -0.000000 -38.200325 -0.000000
			CHANNELS 3 Zrotation Yrotation Xrotation
			JOINT LeftFoot
			{
				OFFSET 0.000000 -39.900856 -0.000000
				CHANNELS 3 Zrotation Yrotation Xrotation
				JOINT LeftToeBase
				{
					OFFSET 0.000000 0.000000 15.261641
					CHANNELS 3 Zrotation Yrotation Xrotation
					JOINT LeftToeBaseEnd
					{
						OFFSET 0.000000 -0.000000 7.539996
						CHANNELS 3 Zrotation Yrotation Xrotation
						End Site
						{
							OFFSET 0.000000 0.000000 0.000000
						}
					}
				}
				JOINT LeftLegEnd
				{
					OFFSET 0.000000 0.000000 0.000000
					CHANNELS 3 Zrotation Yrotation Xrotation
					End Site
					{
						OFFSET 0.000000 0.000000 0.000000
					}
				}
			}
			JOINT LeftUpLegEnd
			{
				OFFSET 0.000000 0.000000 0.000000
				CHANNELS 3 Zrotation Yrotation Xrotation
				End Site
				{
					OFFSET 0.000000 0.000000 0.000000
				}
			}
		}
	}
}
MOTION
Frames: 4
Frame Time: 0.016667
4.264258 87.209084 12.808363 -2.670110 21.147827 -12.804008 4.239375 -1.164520 7.593328 -0.971326 0.126261 2.880394 0.294488 -1.471258 7.444238 -2.846845 -0.186349 4.123311 11.648152 -8.685701 1.666721 -0.110644 -4.165542 -5.217785 0.443286 -0.703122 -17.691444 0.000000 0.000000 0.000000 87.062317 0.695566 11.635022 58.165676 -29.968269 5.647854 -0.540356 19.067812 63.337200 -1.913670 19.338989 1.879220 20.046579 -2.236226 35.622139 -0.000008 0.000037 -49.660255 0.000026 0.000016 -34.570896 0.000014 -0.000003 -0.000031 59.855457 -0.132559 -6.175937 42.113079 0.324306 -0.894458 42.076813 0.365455 -0.848171 0.000011 0.000036 -0.000010 58.701130 -0.056537 -3.807084 41.187626 0.131733 -0.367440 41.167957 0.142783 -0.320037 0.000028 -0.000223 -0.000002 61.808590 0.009015 0.198471 43.225662 -0.236193 0.381253 43.164978 -0.162118 0.319569 -0.000000 -0.002638 0.000024 60.312191 0.060256 2.967211 42.312733 -0.586507 0.874170 42.054581 -0.521726 0.888319 0.000131 -0.000011 0.000009 0.000000 0.000000 0.000000 0.000000 0.000000 0.000000 -86.656906 0.414500 7.397487 -67.167397 18.597021 0.875783 -1.118152 -13.443427 43.290043 25.058599 -12.656617 -15.537698 -15.614224 1.991634 37.831421 0.000016 0.000023 -37.870049 0.000319 0.000001 -26.166204 -0.001036 -0.000017 0.000211 -35.207966 -0.086374 -14.466541 -24.618389 -0.254069 -1.140988 -25.024059 -0.213727 -0.742314 0.000021 0.002424 0.000006 -34.543957 -0.018984 -12.211433 -24.403784 -0.106659 -0.402236 -24.514534 -0.063038 -0.261738 0.001558 -0.000035 0.000473 -41.148838 0.011880 -7.645601 -28.626860 0.149844 0.551805 -28.479540 0.087937 0.370545 -0.000494 0.000010 0.000006 -45.099228 0.051720 -4.003663 -31.129179 0.389282 1.953046 -31.368605 0.329904 1.381936 0.001036 -0.000010 -0.000015 0.000000 0.000000 0.000000 0.000000 0.000000 0.000000 -4.217591 -19.156115 16.879490 -0.156599 -0.957425 13.332622 5.290458 -23.307350 14.903238 -0.603294 1.405155 -20.279404 0.000000 0.000000 0.000000 0.000000 0.000000 0.000000 0.000000 0.000000 0.000000 8.926596 -15.239692 -1.165609 0.323027 0.712354 20.375721 -2.101589 -3.897919 16.480551 0.870863 -0.744371 -20.996441 0.000000 0.000000 0.000000 0.000000 0.000000 0.000000 0.000000 0.000000 0.000000 
4.932765 87.231743 12.966550 -2.548973 20.721170 -12.692514 4.275458 -1.147773 7.559952 -0.920406 0.124856 2.846142 0.160344 -1.155734 7.363255 -3.020058 -0.067680 4.142128 11.427527 -8.606914 1.865189 -0.189182 -4.270367 -5.133253 0.420654 -0.718879 -17.659992 0.000000 0.000000 0.000000 86.604439 0.806832 11.588683 56.792988 -30.607885 6.213702 -0.565172 18.912600 65.301208 -0.854969 18.515871 2.323691 20.057831 -2.223408 35.633915 -0.000007 0.000037 -49.709938 0.000027 0.000016 -34.600018 0.000014 -0.000003 -0.000031 60.078266 -0.129938 -6.167033 42.239357 0.327053 -0.879677 42.186810 0.369473 -0.835600 0.000010 0.000036 -0.000009 58.860134 -0.056637 -3.784468 41.286346 0.131671 -0.360341 41.270145 0.142593 -0.315062 0.000027 -0.000227 -0.000002 61.866497 0.010774 0.191213 43.268158 -0.239181 0.370836 43.205463 -0.162847 0.310407 0.000001 -0.002500 0.000022 60.248753 0.069191 2.905113 42.291000 -0.592882 0.833435 42.035530 -0.528236 0.853823 0.000156 -0.000011 0.000012 0.000000 0.000000 0.000000 0.000000 0.000000 0.000000 -86.405228 0.501477 7.084791 -67.222160 18.165127 -0.870026 -1.210010 -13.456127 42.948303 24.806181 -12.934072 -16.022896 -15.358496 1.975397 37.954605 0.000016 0.000023 -37.220318 0.000319 0.000002 -25.706379 -0.000906 -0.000016 0.000340 -33.816685 -0.086593 -14.435517 -23.732187 -0.262295 -1.199106 -24.146517 -0.221572 -0.791993 0.000022 0.002419 0.000006 -33.190113 -0.018052 -12.263044 -23.520563 -0.110445 -0.423766 -23.650440 -0.065875 -0.278212 0.001504 -0.000034 0.000486 -39.807201 0.012750 -7.853225 -27.663382 0.154826 0.579337 -27.525753 0.091392 0.391929 -0.000317 0.000011 0.000006 -43.802143 0.055904 -4.367951 -30.193205 0.403112 2.032255 -30.457788 0.338530 1.443900 0.001122 -0.000009 -0.000016 0.000000 0.000000 0.000000 0.000000 0.000000 0.000000 -4.650325 -18.813572 16.928791 -0.164314 -0.989804 13.385124 5.596726 -23.174902 14.976116 -0.642945 1.412953 -20.320318 0.000000 0.000000 0.000000 0.000000 0.000000 0.000000 0.000000 0.000000 0.000000 8.504775 -15.018616 -0.794006 0.314670 0.697380 20.023123 -1.924910 -3.508069 16.368847 0.848929 -0.756509 -20.904806 0.000000 0.000000 0.000000 0.000000 0.000000 0.000000 0.000000 0.000000 0.000000 
5.616708 87.261963 13.112283 -2.399209 20.290358 -12.550366 4.299174 -1.124604 7.518602 -0.862503 0.125525 2.824203 -0.004564 -0.810254 7.267468 -3.191367 0.061662 4.159262 11.212742 -8.533952 2.087620 -0.267242 -4.382139 -5.038019 0.409244 -0.728241 -17.631016 0.000000 0.000000 0.000000 86.172920 0.910778 11.581462 55.450134 -31.266500 6.830333 -0.591259 18.791626 66.981110 0.243454 17.579033 2.671810 20.036394 -2.212299 35.658371 -0.000007 0.000037 -49.673897 0.000028 0.000016 -34.568115 0.000014 -0.000003 -0.000031 60.120007 -0.127491 -6.189589 42.231834 0.326294 -0.863022 42.163612 0.369937 -0.821662 0.000010 0.000035 -0.000009 58.836018 -0.056947 -3.805741 41.245651 0.130258 -0.352277 41.235138 0.141157 -0.309392 0.000027 -0.000230 -0.000001 61.723110 0.012938 0.129349 43.160500 -0.239211 0.359626 43.097363 -0.161691 0.300579 0.000001 -0.002351 0.000020 59.997711 0.078461 2.772925 42.121929 -0.591210 0.790986 41.872196 -0.528044 0.818812 0.000189 -0.000011 0.000015 0.000000 0.000000 0.000000 0.000000 0.000000 0.000000 -86.142990 0.580443 6.784222 -67.288666 17.795183 -2.564015 -1.301446 -13.484984 42.563766 24.474258 -13.151260 -16.487349 -15.079119 1.955551 38.089569 0.000015 0.000022 -36.515453 0.000319 0.000002 -25.209095 -0.000773 -0.000015 0.000493 -32.318443 -0.087093 -14.362485 -22.782238 -0.269483 -1.249591 -23.205370 -0.228473 -0.835835 0.000023 0.002405 0.000006 -31.735342 -0.017353 -12.280453 -22.570587 -0.113743 -0.442642 -22.717892 -0.068394 -0.292829 0.001481 -0.000034 0.000498 -38.358479 0.013859 -8.050455 -26.620199 0.159176 0.603465 -26.490501 0.094583 0.410885 -0.000145 0.000011 0.000006 -42.385857 0.060204 -4.744792 -29.167885 0.415956 2.101239 -29.457336 0.346404 1.497761 0.001199 -0.000009 -0.000017 0.000000 0.000000 0.000000 0.000000 0.000000 0.000000 -5.132804 -18.446262 16.918877 -0.172544 -1.020421 13.473072 5.916979 -23.010164 15.079761 -0.683311 1.416361 -20.377556 0.000000 0.000000 0.000000 0.000000 0.000000 0.000000 0.000000 0.000000 0.000000 8.006383 -14.763515 -0.439535 0.304702 0.679466 19.647327 -1.717566 -3.052335 16.287966 0.825287 -0.767237 -20.818789 0.000000 0.000000 0.000000 0.000000 0.000000 0.000000 0.000000 0.000000 0.000000 
6.311086 87.296707 13.245423 -2.225839 19.868706 -12.380637 4.309584 -1.095905 7.472059 -0.800268 0.128800 2.814791 -0.198283 -0.441917 7.161837 -3.356954 0.198584 4.173113 11.020382 -8.472672 2.321205 -0.340004 -4.500048 -4.937099 0.410077 -0.732388 -17.601578 0.000000 0.000000 0.000000 85.782890 1.004544 11.613784 54.157677 -31.910410 7.498632 -0.620648 18.711512 68.357040 1.380069 16.617809 2.934441 19.975737 -2.203805 35.697277 -0.000006 0.000037 -49.535351 0.000029 0.000016 -34.463963 0.000014 -0.000003 -0.000031 59.940269 -0.124888 -6.241099 42.065990 0.320722 -0.842921 41.982578 0.365555 -0.804892 0.000009 0.000034 -0.000008 58.589386 -0.057379 -3.873379 41.041298 0.126984 -0.342558 41.037823 0.138063 -0.302465 0.000027 -0.000235 0.000000 61.337753 0.015502 0.002546 42.875595 -0.235275 0.346814 42.813995 -0.158009 0.289510 0.000001 -0.002208 0.000019 59.527027 0.087778 2.554602 41.779999 -0.578727 0.745032 41.538960 -0.518852 0.781587 0.000230 -0.000011 0.000018 0.000000 0.000000 0.000000 0.000000 0.000000 0.000000 -85.880775 0.648343 6.499027 -67.358833 17.461342 -4.163148 -1.395089 -13.539387 42.122543 24.089823 -13.364851 -16.947243 -14.775045 1.933159 38.235065 0.000015 0.000022 -35.753963 0.000320 0.000003 -24.672815 -0.000636 -0.000013 0.000658 -30.708132 -0.087631 -14.246154 -21.763489 -0.275762 -1.291000 -22.195341 -0.234537 -0.872555 0.000024 0.002383 0.000006 -30.171864 -0.016861 -12.266078 -21.547596 -0.116589 -0.458401 -21.710365 -0.070599 -0.305190 0.001488 -0.000034 0.000509 -36.788280 0.015169 -8.241089 -25.489698 0.163086 0.623296 -25.365841 0.097608 0.426761 0.000005 0.000011 0.000007 -40.829063 0.064716 -5.140646 -28.043005 0.428318 2.157521 -28.356419 0.353922 1.541472 0.001268 -0.000009 -0.000018 0.000000 0.000000 0.000000 0.000000 0.000000 0.000000 -5.658586 -18.058224 16.842215 -0.181110 -1.047603 13.609051 6.248492 -22.814838 15.214611 -0.723170 1.414459 -20.453045 0.000000 0.000000 0.000000 0.000000 0.000000 0.000000 0.000000 0.000000 0.000000 7.441018 -14.485751 -0.109054 0.293333 0.658154 19.262249 -1.481050 -2.544843 16.232813 0.800454 -0.776266 -20.742266 0.000000 0.000000 0.000000 0.000000 0.000000 0.000000 0.000000 0.000000 0.000000 
